<svg id="Layer_1" data-name="Layer 1" xmlns="http://www.w3.org/2000/svg" xmlns:xlink="http://www.w3.org/1999/xlink" viewBox="0 0 900 1600"><defs><style>.cls-1{opacity:0.48;}</style><image id="image" width="512" height="512" xlink:href="../Downloads/sun.png"/><image id="image-2" width="512" height="512" xlink:href="../Downloads/cloud.png"/><image id="image-3" width="512" height="512" xlink:href="../Downloads/cloudy.png"/><image id="image-4" width="512" height="512" xlink:href="../Downloads/cloudy%20(1).png"/><image id="image-5" width="512" height="512" xlink:href="../Downloads/snow.png"/></defs><use class="cls-1" transform="translate(418.46 28.57) scale(0.22)" xlink:href="#image"/><use class="cls-1" transform="translate(613.52 165.43) scale(0.22)" xlink:href="#image"/><use class="cls-1" transform="translate(475.65 538.19) scale(0.22)" xlink:href="#image"/><use class="cls-1" transform="translate(656.41 948.74) scale(0.22)" xlink:href="#image"/><use class="cls-1" transform="translate(270.37 379.89) scale(0.22)" xlink:href="#image"/><use class="cls-1" transform="translate(270.37 858.87) scale(0.22)" xlink:href="#image"/><use class="cls-1" transform="translate(251.87 25.51) scale(0.27)" xlink:href="#image-2"/><use class="cls-1" transform="translate(455.1 171.55) scale(0.27)" xlink:href="#image-2"/><use class="cls-1" transform="translate(651.19 485.09) scale(0.27)" xlink:href="#image-2"/><use class="cls-1" transform="translate(265.14 513.68) scale(0.27)" xlink:href="#image-2"/><use class="cls-1" transform="translate(784.97 619.89) scale(0.27)" xlink:href="#image-2"/><use class="cls-1" transform="translate(709.91 782.28) scale(0.27)" xlink:href="#image-2"/><use class="cls-1" transform="translate(483.7 684.23) scale(0.27)" xlink:href="#image-2"/><use class="cls-1" transform="translate(54.76 995.21) scale(0.27)" xlink:href="#image-2"/><use class="cls-1" transform="translate(81.9 221.6) scale(0.27)" xlink:href="#image-3"/><use class="cls-1" transform="translate(477.14 335.98) scale(0.27)" xlink:href="#image-3"/><use class="cls-1" transform="translate(13.48 418.7) scale(0.27)" xlink:href="#image-3"/><use class="cls-1" transform="translate(262.67 680.15) scale(0.27)" xlink:href="#image-3"/><use class="cls-1" transform="translate(42.07 39.81) scale(0.28)" xlink:href="#image-4"/><use class="cls-1" transform="translate(39.01 611.72) scale(0.28)" xlink:href="#image-4"/><use class="cls-1" transform="translate(39.01 1178.53) scale(0.28)" xlink:href="#image-4"/><use class="cls-1" transform="translate(464.88 961) scale(0.28)" xlink:href="#image-4"/><use class="cls-1" transform="translate(767.18 103.13) scale(0.28)" xlink:href="#image-4"/><use class="cls-1" transform="translate(638.5 318.62) scale(0.28)" xlink:href="#image-4"/><use class="cls-1" transform="translate(293.38 194.02) scale(0.22)" xlink:href="#image-5"/><use class="cls-1" transform="translate(778.49 330.87) scale(0.22)" xlink:href="#image-5"/><use class="cls-1" transform="translate(812.19 981.94) scale(0.22)" xlink:href="#image-5"/><use class="cls-1" transform="translate(526.23 831.3) scale(0.22)" xlink:href="#image-5"/><use class="cls-1" transform="translate(659 636.23) scale(0.22)" xlink:href="#image-5"/><use class="cls-1" transform="translate(53.38 811.89) scale(0.22)" xlink:href="#image-5"/><use class="cls-1" transform="translate(290.83 1027.89) scale(0.22)" xlink:href="#image-5"/><use class="cls-1" transform="translate(599.77 49) scale(0.22)" xlink:href="#image-5"/></svg>